<?xml version="1.0" encoding="utf-8"?>
<!-- Generator: Adobe Illustrator 26.0.1, SVG Export Plug-In . SVG Version: 6.00 Build 0)  -->
<svg version="1.1" id="Layer_1" xmlns="http://www.w3.org/2000/svg" xmlns:xlink="http://www.w3.org/1999/xlink" x="0px" y="0px"
	 viewBox="0 0 192 192" style="enable-background:new 0 0 192 192;" xml:space="preserve">
<style type="text/css">
	.st0{fill:url(#SVGID_1_);}
	.st1{fill:url(#SVGID_00000100377389156877432490000011630370080844174779_);}
	.st2{fill:url(#SVGID_00000173134441712235989800000011524680645685198232_);}
	.st3{fill:url(#SVGID_00000088841206335770885860000006148189976977567404_);}
	.st4{opacity:0.5;fill:url(#SVGID_00000067924779856391981350000018369532892525222795_);enable-background:new    ;}
	.st5{fill:url(#SVGID_00000054265557706715864580000014992626414342895258_);}
	.st6{opacity:0.5;fill:url(#SVGID_00000125578806562147197880000017602386667696524167_);enable-background:new    ;}
</style>
<g>
	<g>
		
			<linearGradient id="SVGID_1_" gradientUnits="userSpaceOnUse" x1="-75.046" y1="267.2902" x2="136.5762" y2="-19.6694" gradientTransform="matrix(1 0 0 -1 0 194)">
			<stop  offset="0" style="stop-color:#FF87D4"/>
			<stop  offset="0.5" style="stop-color:#FF0088"/>
			<stop  offset="1" style="stop-color:#6C0016"/>
		</linearGradient>
		<path class="st0" d="M47.4,119l-9.5,28.5h5.7h11.9H117c4.9,0,9.6-1,13.9-2.9c0.1-0.5,0.1-1,0.1-1.6c0-5.7-3.5-10.8-8.6-12.9
			c-1.7,0.5-3.5,0.8-5.3,0.8H60.9l2.2-6.7L47.4,119z"/>
		
			<linearGradient id="SVGID_00000020398240337377762170000017865028489053095076_" gradientUnits="userSpaceOnUse" x1="-15.4401" y1="311.2487" x2="196.1826" y2="24.2881" gradientTransform="matrix(1 0 0 -1 0 194)">
			<stop  offset="0" style="stop-color:#FF87D4"/>
			<stop  offset="0.5" style="stop-color:#FF0088"/>
			<stop  offset="1" style="stop-color:#6C0016"/>
		</linearGradient>
		<path style="fill:url(#SVGID_00000020398240337377762170000017865028489053095076_);" d="M151.6,112.8c0,3.5-0.5,6.9-1.5,10
			c-3.7-6.1-9.1-11.2-15.6-14.5c-1.6-6.3-6.6-11.5-13.2-13.1l-54-13.5c-1.9-0.5-3.7-1.1-5.4-1.8c-3-1.3-5.7-3-8.1-5
			c-2.6-2.1-4.8-4.5-6.6-7.2c-2-2.9-3.5-6.1-4.6-9.5c0,0,0,0,0,0c-1-3.2-1.5-6.6-1.5-10.1c0-0.3,0-0.6,0-0.9
			C41.6,28.6,57,13.5,75.8,13.5h79l-8.7,26.1l-17.7,0l3.4-9.5h-56c-8.4,0-15.6,5.8-17.5,13.7c-0.4,1.4-0.6,2.9-0.6,4.4
			c0,1.8,0.3,3.5,0.7,5.1c0.8,2.7,2.2,5.2,4.1,7.2c1.4,1.5,3,2.7,4.8,3.7c1,0.5,2,1,3.1,1.3c0.3,0.1,0.6,0.2,0.9,0.3l2.1,0.5
			l4.9,1.2l46.9,11.7C140.8,83.1,151.6,96.9,151.6,112.8z"/>
		
			<linearGradient id="SVGID_00000162329703044251586850000000727769191650859153_" gradientUnits="userSpaceOnUse" x1="203.7797" y1="-74.0949" x2="20.9385" y2="118.2694" gradientTransform="matrix(1 0 0 -1 0 194)">
			<stop  offset="0" style="stop-color:#D1B7FF"/>
			<stop  offset="0.33" style="stop-color:#7741E0"/>
			<stop  offset="0.66" style="stop-color:#4A2295"/>
			<stop  offset="1" style="stop-color:#0D0021"/>
		</linearGradient>
		<path style="fill:url(#SVGID_00000162329703044251586850000000727769191650859153_);" d="M151.6,143c0,19.1-15.5,34.7-34.7,34.7
			h-79l8.7-26l17.7,0l-3.4,9.4H117c10,0,18.1-8.1,18.1-18.1c0-6.9-3.9-13-9.8-16.1c-1.2-0.6-2.5-1.1-3.9-1.5l-54-13.5
			c-15.5-3.9-26.2-17.7-26.2-33.6c0-3.5,0.5-6.9,1.5-10c0.4,0.6,0.7,1.2,1.1,1.8c2.1,3,4.6,5.8,7.4,8.1c2.2,1.8,4.5,3.3,7.1,4.6
			c1.6,6.3,6.6,11.5,13.2,13.1l54,13.5c2.4,0.6,4.7,1.4,6.9,2.5c0.4,0.2,0.9,0.4,1.3,0.7c0.4,0.2,0.8,0.5,1.2,0.7
			c0.4,0.2,0.8,0.5,1.2,0.8c0.4,0.3,0.8,0.5,1.2,0.8c0.3,0.2,0.6,0.5,0.9,0.7c0.1,0.1,0.3,0.2,0.4,0.3c0.2,0.1,0.4,0.3,0.5,0.4
			c0.2,0.2,0.4,0.3,0.6,0.5c0.3,0.3,0.6,0.5,0.9,0.8c0.3,0.3,0.6,0.6,1,0.9c0.3,0.3,0.7,0.7,1,1c0.3,0.3,0.6,0.7,0.9,1
			c0.3,0.3,0.5,0.7,0.8,1c0,0.1,0.1,0.1,0.1,0.2c0.3,0.4,0.5,0.7,0.8,1c0.3,0.4,0.5,0.8,0.8,1.1c0.3,0.4,0.5,0.8,0.8,1.2
			c3,5,4.8,10.9,4.9,17C151.6,142.5,151.6,142.7,151.6,143z"/>
		
			<linearGradient id="SVGID_00000069389252023796699380000000887692649684865713_" gradientUnits="userSpaceOnUse" x1="263.1911" y1="-17.6245" x2="80.3493" y2="174.7402" gradientTransform="matrix(1 0 0 -1 0 194)">
			<stop  offset="0" style="stop-color:#D1B7FF"/>
			<stop  offset="0.33" style="stop-color:#7741E0"/>
			<stop  offset="0.66" style="stop-color:#4A2295"/>
			<stop  offset="1" style="stop-color:#0D0021"/>
		</linearGradient>
		<path style="fill:url(#SVGID_00000069389252023796699380000000887692649684865713_);" d="M137.2,43.7H75.8c-4.9,0-9.6,1-13.9,2.9
			c-0.1,0.5-0.1,1-0.1,1.6c0,1.3,0.2,2.7,0.6,3.9c0.6,2.1,1.7,4,3.2,5.6c1.4,1.5,3,2.6,4.9,3.4c1.7-0.5,3.5-0.8,5.3-0.8h56l-2.2,6.7
			l15.7,5.2l9.5-28.5h-5.7H137.2z"/>
	</g>
	
		<linearGradient id="SVGID_00000126311013170224854770000003043971101425421956_" gradientUnits="userSpaceOnUse" x1="85.6924" y1="21.9097" x2="140.2909" y2="100.633" gradientTransform="matrix(1 0 0 -1 0 194)">
		<stop  offset="0" style="stop-color:#FFFFFF;stop-opacity:0"/>
		<stop  offset="1" style="stop-color:#FFFFFF"/>
	</linearGradient>
	<path style="opacity:0.5;fill:url(#SVGID_00000126311013170224854770000003043971101425421956_);enable-background:new    ;" d="
		M151.6,143c0,19.1-15.5,34.7-34.7,34.7h-79l8.7-26l17.7,0l-3.4,9.4H117c10,0,18.1-8.1,18.1-18.1c0-6.9-3.9-13-9.8-16.1
		c9.8,3.3,18.8,8.5,26.4,15.3C151.6,142.5,151.6,142.7,151.6,143z"/>
	
		<linearGradient id="SVGID_00000093146689497477026780000009724070550001020344_" gradientUnits="userSpaceOnUse" x1="74.8497" y1="128.7212" x2="77.1654" y2="125.5812" gradientTransform="matrix(1 0 0 -1 0 194)">
		<stop  offset="0" style="stop-color:#FF87D4"/>
		<stop  offset="0.5" style="stop-color:#FF0088"/>
		<stop  offset="1" style="stop-color:#6C0016"/>
	</linearGradient>
	<path style="fill:url(#SVGID_00000093146689497477026780000009724070550001020344_);" d="M73.6,66.2l4.9,1.2
		C76.8,67.1,75.2,66.7,73.6,66.2z"/>
	
		<linearGradient id="SVGID_00000178914698866124917000000001516260386499074955_" gradientUnits="userSpaceOnUse" x1="93.0992" y1="156.3459" x2="57.1234" y2="117.619" gradientTransform="matrix(1 0 0 -1 0 194)">
		<stop  offset="0" style="stop-color:#FFFFFF;stop-opacity:0"/>
		<stop  offset="1" style="stop-color:#FFFFFF"/>
	</linearGradient>
	<path style="opacity:0.5;fill:url(#SVGID_00000178914698866124917000000001516260386499074955_);enable-background:new    ;" d="
		M154.8,13.5l-8.7,26.1l-17.7,0l3.4-9.5h-56c-8.4,0-15.6,5.8-17.5,13.7c-0.4,1.4-0.6,2.9-0.6,4.4c0,1.8,0.3,3.5,0.7,5.1
		c0.8,2.7,2.2,5.2,4.1,7.2c1.4,1.5,3,2.7,4.8,3.7c-9.9-3.8-18.8-9.6-26.2-16.9C41.6,28.6,57,13.5,75.8,13.5H154.8z"/>
</g>
</svg>
