<?xml version="1.0" encoding="utf-8"?>
<!-- Generator: Adobe Illustrator 26.0.1, SVG Export Plug-In . SVG Version: 6.00 Build 0)  -->
<svg version="1.1" id="Layer_1" xmlns="http://www.w3.org/2000/svg" xmlns:xlink="http://www.w3.org/1999/xlink" x="0px" y="0px"
	 viewBox="0 0 192 192" style="enable-background:new 0 0 192 192;" xml:space="preserve">
<style type="text/css">
	.st0{fill:url(#SVGID_1_);}
	.st1{fill:url(#SVGID_00000121252568008660362270000011739304958805280956_);}
	.st2{fill:url(#SVGID_00000145740493942958992020000017428968440268635787_);}
	.st3{fill:url(#SVGID_00000057838970219810443670000011850853340665588410_);}
	.st4{opacity:0.5;fill:url(#SVGID_00000040572548258823408650000005701651372937551277_);}
	.st5{fill:url(#SVGID_00000143603967139727005460000003145347835390837170_);}
	.st6{opacity:0.5;fill:url(#SVGID_00000106843561743343336300000002112210015566988192_);}
</style>
<g>
	<g>
		<linearGradient id="SVGID_1_" gradientUnits="userSpaceOnUse" x1="-49.1497" y1="-47.7707" x2="130.4969" y2="195.8301">
			<stop  offset="0" style="stop-color:#FF87D4"/>
			<stop  offset="0.5" style="stop-color:#FF0088"/>
			<stop  offset="1" style="stop-color:#6C0016"/>
		</linearGradient>
		<path class="st0" d="M54.82,115.42l-8.07,24.21h4.83h10.13h52.14c4.18,0,8.15-0.87,11.76-2.46c0.05-0.44,0.08-0.89,0.08-1.34
			c0-4.85-2.94-9.15-7.33-10.95c-1.42,0.44-2.93,0.68-4.5,0.68H66.27l1.9-5.69L54.82,115.42z"/>
		
			<linearGradient id="SVGID_00000089550245516283438180000014457156750847654037_" gradientUnits="userSpaceOnUse" x1="1.4609" y1="-85.0953" x2="181.108" y2="158.5063">
			<stop  offset="0" style="stop-color:#FF87D4"/>
			<stop  offset="0.5" style="stop-color:#FF0088"/>
			<stop  offset="1" style="stop-color:#6C0016"/>
		</linearGradient>
		<path style="fill:url(#SVGID_00000089550245516283438180000014457156750847654037_);" d="M143.28,110.21
			c0,2.96-0.44,5.83-1.26,8.52c-3.16-5.2-7.73-9.48-13.28-12.29c-1.36-5.39-5.57-9.73-11.17-11.12L71.75,83.87
			c-1.6-0.4-3.15-0.93-4.62-1.57c-2.51-1.09-4.83-2.51-6.9-4.21c-2.17-1.77-4.07-3.85-5.64-6.15c-1.69-2.46-3-5.17-3.88-8.06
			c0,0,0,0,0-0.01c-0.82-2.72-1.26-5.59-1.26-8.55c0-0.25,0-0.5,0.01-0.75C49.88,38.7,62.92,25.9,78.9,25.9H146l-7.39,22.16
			l-15.02,0.01l2.88-8.1H78.9c-7.17,0-13.21,4.94-14.88,11.6c-0.31,1.2-0.47,2.46-0.47,3.76c0,1.49,0.22,2.95,0.63,4.33
			c0.67,2.31,1.88,4.4,3.49,6.14c1.17,1.25,2.55,2.31,4.1,3.12c0.84,0.44,1.73,0.81,2.66,1.09c0.25,0.08,0.51,0.15,0.76,0.22
			L77,70.67l4.17,1.04l39.82,9.96C134.11,84.95,143.28,96.69,143.28,110.21z"/>
		
			<linearGradient id="SVGID_00000119835973872181652320000003693434879407136158_" gradientUnits="userSpaceOnUse" x1="187.5545" y1="242.0252" x2="32.3401" y2="78.7266">
			<stop  offset="0" style="stop-color:#D1B7FF"/>
			<stop  offset="0.33" style="stop-color:#7741E0"/>
			<stop  offset="0.66" style="stop-color:#4A2295"/>
			<stop  offset="1" style="stop-color:#0D0021"/>
		</linearGradient>
		<path style="fill:url(#SVGID_00000119835973872181652320000003693434879407136158_);" d="M143.28,135.84
			c0,16.23-13.2,29.42-29.43,29.42h-67.1l7.36-22.07l15.02,0.04l-2.86,7.96h47.59c8.46,0,15.35-6.88,15.35-15.35
			c0-5.85-3.29-11.07-8.32-13.65c-1.03-0.53-2.14-0.95-3.31-1.25l-45.82-11.45c-13.12-3.28-22.28-15.02-22.28-28.54
			c0-2.97,0.44-5.83,1.26-8.53c0.3,0.51,0.63,1.02,0.97,1.51c1.77,2.58,3.89,4.9,6.31,6.89c1.85,1.51,3.86,2.82,5.99,3.9
			c1.36,5.39,5.57,9.73,11.17,11.12l45.81,11.45c2.05,0.51,4,1.23,5.84,2.13c0.37,0.18,0.73,0.37,1.09,0.56
			c0.35,0.19,0.71,0.39,1.06,0.61c0.35,0.2,0.69,0.42,1.03,0.64c0.34,0.23,0.68,0.45,1,0.69c0.27,0.19,0.54,0.39,0.8,0.59
			c0.11,0.08,0.22,0.17,0.32,0.25c0.15,0.12,0.3,0.24,0.45,0.37c0.17,0.13,0.33,0.27,0.49,0.42c0.27,0.22,0.53,0.45,0.78,0.69
			c0.27,0.26,0.55,0.52,0.82,0.8c0.28,0.28,0.56,0.57,0.83,0.87c0.27,0.29,0.53,0.59,0.79,0.89c0.24,0.27,0.46,0.56,0.69,0.84
			c0.04,0.05,0.08,0.11,0.12,0.15c0.23,0.3,0.45,0.59,0.67,0.89c0.23,0.32,0.45,0.64,0.67,0.97c0.23,0.34,0.44,0.68,0.65,1.03
			c2.57,4.27,4.07,9.22,4.18,14.47C143.28,135.37,143.28,135.6,143.28,135.84z"/>
		
			<linearGradient id="SVGID_00000120519458651497691580000016115819431282762131_" gradientUnits="userSpaceOnUse" x1="237.9859" y1="194.0903" x2="82.771" y2="30.7913">
			<stop  offset="0" style="stop-color:#D1B7FF"/>
			<stop  offset="0.33" style="stop-color:#7741E0"/>
			<stop  offset="0.66" style="stop-color:#4A2295"/>
			<stop  offset="1" style="stop-color:#0D0021"/>
		</linearGradient>
		<path style="fill:url(#SVGID_00000120519458651497691580000016115819431282762131_);" d="M131.04,51.52H78.9
			c-4.18,0-8.15,0.87-11.76,2.46c-0.05,0.44-0.08,0.89-0.08,1.34c0,1.13,0.16,2.25,0.48,3.33c0.51,1.76,1.44,3.39,2.7,4.75
			c1.15,1.25,2.58,2.23,4.17,2.86c1.42-0.44,2.93-0.67,4.49-0.67h47.58l-1.89,5.69l13.35,4.45L146,51.52h-4.83H131.04z"/>
	</g>
	
		<linearGradient id="SVGID_00000007401401969304584570000007330745978861318811_" gradientUnits="userSpaceOnUse" x1="87.3017" y1="160.5264" x2="133.6505" y2="93.698">
		<stop  offset="0" style="stop-color:#FFFFFF;stop-opacity:0"/>
		<stop  offset="1" style="stop-color:#FFFFFF"/>
	</linearGradient>
	<path style="opacity:0.5;fill:url(#SVGID_00000007401401969304584570000007330745978861318811_);" d="M143.28,135.84
		c0,16.23-13.2,29.42-29.43,29.42h-67.1l7.36-22.07l15.02,0.04l-2.86,7.96h47.59c8.46,0,15.35-6.88,15.35-15.35
		c0-5.85-3.29-11.07-8.32-13.65c8.34,2.8,15.94,7.25,22.38,12.96C143.28,135.37,143.28,135.6,143.28,135.84z"/>
	
		<linearGradient id="SVGID_00000093879074381008638220000009066661802687442840_" gradientUnits="userSpaceOnUse" x1="78.0989" y1="69.8615" x2="80.0662" y2="72.5291">
		<stop  offset="0" style="stop-color:#FF87D4"/>
		<stop  offset="0.5" style="stop-color:#FF0088"/>
		<stop  offset="1" style="stop-color:#6C0016"/>
	</linearGradient>
	<path style="fill:url(#SVGID_00000093879074381008638220000009066661802687442840_);" d="M77,70.67l4.17,1.04
		C79.76,71.42,78.37,71.07,77,70.67z"/>
	
		<linearGradient id="SVGID_00000018232048229639115170000011527511313011468434_" gradientUnits="userSpaceOnUse" x1="93.5907" y1="46.4033" x2="63.0507" y2="79.2787">
		<stop  offset="0" style="stop-color:#FFFFFF;stop-opacity:0"/>
		<stop  offset="1" style="stop-color:#FFFFFF"/>
	</linearGradient>
	<path style="opacity:0.5;fill:url(#SVGID_00000018232048229639115170000011527511313011468434_);" d="M146,25.9l-7.39,22.16
		l-15.02,0.01l2.88-8.1H78.9c-7.17,0-13.21,4.94-14.88,11.6c-0.31,1.2-0.47,2.46-0.47,3.76c0,1.49,0.22,2.95,0.63,4.33
		c0.67,2.31,1.88,4.4,3.49,6.14c1.17,1.25,2.55,2.31,4.1,3.12c-8.41-3.22-15.97-8.13-22.28-14.33C49.88,38.7,62.92,25.9,78.9,25.9
		H146z"/>
</g>
</svg>
