<?xml version="1.0" encoding="utf-8"?>
<!-- Generator: Adobe Illustrator 26.0.1, SVG Export Plug-In . SVG Version: 6.00 Build 0)  -->
<svg version="1.1" id="Layer_1" xmlns="http://www.w3.org/2000/svg" xmlns:xlink="http://www.w3.org/1999/xlink" x="0px" y="0px"
	 viewBox="0 0 512 512" style="enable-background:new 0 0 512 512;" xml:space="preserve">
<style type="text/css">
	.st0{fill:url(#SVGID_1_);}
	.st1{fill:url(#SVGID_00000047759045204436263320000016037626625986526107_);}
	.st2{fill:url(#SVGID_00000054968282826773615010000003475806504815080098_);}
	.st3{fill:url(#SVGID_00000122679057887693789230000018260424317911702685_);}
	.st4{opacity:0.5;fill:url(#SVGID_00000017486739746893800380000010528105039344187274_);enable-background:new    ;}
	.st5{fill:url(#SVGID_00000121967006222534112140000007139638675885239737_);}
	.st6{opacity:0.5;fill:url(#SVGID_00000111171855277738763270000011105341184484743350_);enable-background:new    ;}
</style>
<g>
	<g>
		
			<linearGradient id="SVGID_1_" gradientUnits="userSpaceOnUse" x1="-204.3848" y1="711.5342" x2="363.9682" y2="-59.1525" gradientTransform="matrix(1 0 0 -1 0 514)">
			<stop  offset="0" style="stop-color:#FF87D4"/>
			<stop  offset="0.5" style="stop-color:#FF0088"/>
			<stop  offset="1" style="stop-color:#6C0016"/>
		</linearGradient>
		<path class="st0" d="M124.5,318.8L99,395.4h15.3h32h165c13.2,0,25.8-2.8,37.2-7.8c0.2-1.4,0.3-2.8,0.3-4.2
			c0-15.3-9.3-28.9-23.2-34.6c-4.5,1.4-9.3,2.2-14.2,2.2H160.8l6-18L124.5,318.8z"/>
		
			<linearGradient id="SVGID_00000113327666117583217870000008446344690799428226_" gradientUnits="userSpaceOnUse" x1="-44.3015" y1="829.5934" x2="524.053" y2="58.9043" gradientTransform="matrix(1 0 0 -1 0 514)">
			<stop  offset="0" style="stop-color:#FF87D4"/>
			<stop  offset="0.5" style="stop-color:#FF0088"/>
			<stop  offset="1" style="stop-color:#6C0016"/>
		</linearGradient>
		<path style="fill:url(#SVGID_00000113327666117583217870000008446344690799428226_);" d="M404.4,302.3c0,9.4-1.4,18.4-4,27
			c-10-16.5-24.5-30-42-38.9c-4.3-17.1-17.6-30.8-35.3-35.2l-145-36.2c-5.1-1.3-10-2.9-14.6-5c-7.9-3.4-15.3-7.9-21.8-13.3
			c-6.9-5.6-12.9-12.2-17.8-19.5c-5.3-7.8-9.5-16.4-12.3-25.5c0,0,0,0,0,0c-2.6-8.6-4-17.7-4-27c0-0.8,0-1.6,0-2.4
			c1.3-50.2,42.6-90.7,93.1-90.7H413l-23.4,70.1l-47.5,0l9.1-25.6H200.7c-22.7,0-41.8,15.6-47.1,36.7c-1,3.8-1.5,7.8-1.5,11.9
			c0,4.7,0.7,9.3,2,13.7c2.1,7.3,5.9,13.9,11,19.4c3.7,4,8.1,7.3,13,9.9c2.7,1.4,5.5,2.6,8.4,3.4c0.8,0.3,1.6,0.5,2.4,0.7l5.7,1.4
			l13.2,3.3l126,31.5C375.4,222.4,404.4,259.5,404.4,302.3z"/>
		
			<linearGradient id="SVGID_00000095334438465258702680000014346251507337943478_" gradientUnits="userSpaceOnUse" x1="544.4565" y1="-205.3229" x2="53.4004" y2="311.3095" gradientTransform="matrix(1 0 0 -1 0 514)">
			<stop  offset="0" style="stop-color:#D1B7FF"/>
			<stop  offset="0.33" style="stop-color:#7741E0"/>
			<stop  offset="0.66" style="stop-color:#4A2295"/>
			<stop  offset="1" style="stop-color:#0D0021"/>
		</linearGradient>
		<path style="fill:url(#SVGID_00000095334438465258702680000014346251507337943478_);" d="M404.4,383.4c0,51.3-41.8,93.1-93.1,93.1
			H99l23.3-69.8l47.5,0.1l-9,25.2h150.6c26.8,0,48.6-21.8,48.6-48.6c0-18.5-10.4-35-26.3-43.2c-3.3-1.7-6.8-3-10.5-4l-145-36.2
			c-41.5-10.4-70.5-47.5-70.5-90.3c0-9.4,1.4-18.4,4-27c0.9,1.6,2,3.2,3.1,4.8c5.6,8.2,12.3,15.5,20,21.8c5.9,4.8,12.2,8.9,19,12.3
			c4.3,17.1,17.6,30.8,35.3,35.2L333.9,293c6.5,1.6,12.7,3.9,18.5,6.7c1.2,0.6,2.3,1.2,3.4,1.8c1.1,0.6,2.2,1.2,3.4,1.9
			c1.1,0.6,2.2,1.3,3.3,2c1.1,0.7,2.2,1.4,3.2,2.2c0.9,0.6,1.7,1.2,2.5,1.9c0.3,0.3,0.7,0.5,1,0.8c0.5,0.4,0.9,0.8,1.4,1.2
			c0.5,0.4,1,0.9,1.6,1.3c0.9,0.7,1.7,1.4,2.5,2.2c0.9,0.8,1.7,1.6,2.6,2.5c0.9,0.9,1.8,1.8,2.6,2.8c0.9,0.9,1.7,1.9,2.5,2.8
			c0.8,0.9,1.5,1.8,2.2,2.7c0.1,0.2,0.3,0.3,0.4,0.5c0.7,0.9,1.4,1.9,2.1,2.8c0.7,1,1.4,2,2.1,3.1c0.7,1.1,1.4,2.2,2.1,3.3
			c8.1,13.5,12.9,29.2,13.2,45.8C404.4,381.9,404.4,382.6,404.4,383.4z"/>
		
			<linearGradient id="SVGID_00000048476848196722307820000017513590517318656157_" gradientUnits="userSpaceOnUse" x1="704.0176" y1="-53.6605" x2="212.9598" y2="462.973" gradientTransform="matrix(1 0 0 -1 0 514)">
			<stop  offset="0" style="stop-color:#D1B7FF"/>
			<stop  offset="0.33" style="stop-color:#7741E0"/>
			<stop  offset="0.66" style="stop-color:#4A2295"/>
			<stop  offset="1" style="stop-color:#0D0021"/>
		</linearGradient>
		<path style="fill:url(#SVGID_00000048476848196722307820000017513590517318656157_);" d="M365.7,116.6h-165
			c-13.2,0-25.8,2.8-37.2,7.8c-0.2,1.4-0.3,2.8-0.3,4.2c0,3.6,0.5,7.1,1.5,10.5c1.6,5.6,4.6,10.7,8.5,15c3.6,4,8.2,7.1,13.2,9
			c4.5-1.4,9.3-2.1,14.2-2.1h150.5l-6,18l42.2,14.1l25.5-76.6h-15.3H365.7z"/>
	</g>
	
		<linearGradient id="SVGID_00000164497341817585060810000013657325377966870941_" gradientUnits="userSpaceOnUse" x1="227.3099" y1="52.5166" x2="373.9449" y2="263.9435" gradientTransform="matrix(1 0 0 -1 0 514)">
		<stop  offset="0" style="stop-color:#FFFFFF;stop-opacity:0"/>
		<stop  offset="1" style="stop-color:#FFFFFF"/>
	</linearGradient>
	<path style="opacity:0.5;fill:url(#SVGID_00000164497341817585060810000013657325377966870941_);enable-background:new    ;" d="
		M404.4,383.4c0,51.3-41.8,93.1-93.1,93.1H99l23.3-69.8l47.5,0.1l-9,25.2h150.6c26.8,0,48.6-21.8,48.6-48.6
		c0-18.5-10.4-35-26.3-43.2c26.4,8.9,50.4,22.9,70.8,41C404.4,381.9,404.4,382.6,404.4,383.4z"/>
	
		<linearGradient id="SVGID_00000106829335819066062040000005491208604382159514_" gradientUnits="userSpaceOnUse" x1="198.1895" y1="339.3799" x2="204.4088" y2="330.9468" gradientTransform="matrix(1 0 0 -1 0 514)">
		<stop  offset="0" style="stop-color:#FF87D4"/>
		<stop  offset="0.5" style="stop-color:#FF0088"/>
		<stop  offset="1" style="stop-color:#6C0016"/>
	</linearGradient>
	<path style="fill:url(#SVGID_00000106829335819066062040000005491208604382159514_);" d="M194.7,177.2l13.2,3.3
		C203.4,179.6,199,178.5,194.7,177.2z"/>
	
		<linearGradient id="SVGID_00000116211152056680025810000013905899213185134257_" gradientUnits="userSpaceOnUse" x1="247.2022" y1="413.5715" x2="150.582" y2="309.5627" gradientTransform="matrix(1 0 0 -1 0 514)">
		<stop  offset="0" style="stop-color:#FFFFFF;stop-opacity:0"/>
		<stop  offset="1" style="stop-color:#FFFFFF"/>
	</linearGradient>
	<path style="opacity:0.5;fill:url(#SVGID_00000116211152056680025810000013905899213185134257_);enable-background:new    ;" d="
		M413,35.6l-23.4,70.1l-47.5,0l9.1-25.6H200.7c-22.7,0-41.8,15.6-47.1,36.7c-1,3.8-1.5,7.8-1.5,11.9c0,4.7,0.7,9.3,2,13.7
		c2.1,7.3,5.9,13.9,11,19.4c3.7,4,8.1,7.3,13,9.9c-26.6-10.2-50.5-25.7-70.5-45.3c1.2-50.3,42.5-90.8,93-90.8H413z"/>
</g>
</svg>
