<?xml version="1.0" encoding="utf-8"?>
<!-- Generator: Adobe Illustrator 26.0.1, SVG Export Plug-In . SVG Version: 6.00 Build 0)  -->
<svg version="1.1" xmlns="http://www.w3.org/2000/svg" xmlns:xlink="http://www.w3.org/1999/xlink" x="0px" y="0px"
	 viewBox="0 0 500 500" style="enable-background:new 0 0 500 500;" xml:space="preserve">
<style type="text/css">
	.st0{fill:url(#SVGID_1_);}
	.st1{fill:url(#SVGID_00000037655826602696337280000001771051864805961360_);}
	.st2{fill:url(#SVGID_00000165219382939739393950000007117343193932467135_);}
	.st3{fill:url(#SVGID_00000072996211387873388060000015406231015483517079_);}
	.st4{opacity:0.5;fill:url(#SVGID_00000104667867804150084670000016040418319533934754_);}
	.st5{fill:url(#SVGID_00000042014915707008236440000007781855903287629952_);}
	.st6{opacity:0.5;fill:url(#SVGID_00000032624293598273267090000012301596055450884764_);}
</style>
<g id="BACKGROUND">
</g>
<g id="OBJECTS">
	<g>
		<g>
			<linearGradient id="SVGID_1_" gradientUnits="userSpaceOnUse" x1="-89.7684" y1="-84.6848" x2="329.6702" y2="484.074">
				<stop  offset="0" style="stop-color:#FF87D1"/>
				<stop  offset="0.5" style="stop-color:#E50085"/>
				<stop  offset="1" style="stop-color:#5C001C"/>
			</linearGradient>
			<path class="st0" d="M152.98,296.34l-18.84,56.53h11.27h23.66h121.75c9.76,0,19.04-2.04,27.45-5.73
				c0.11-1.04,0.18-2.07,0.18-3.14c0-11.34-6.87-21.36-17.12-25.56c-3.32,1.02-6.85,1.58-10.51,1.58H179.7l4.44-13.29L152.98,296.34
				z"/>
			
				<linearGradient id="SVGID_00000175313218052968623950000013457670157426849725_" gradientUnits="userSpaceOnUse" x1="28.3971" y1="-171.8301" x2="447.8369" y2="396.9303">
				<stop  offset="0" style="stop-color:#FF87D1"/>
				<stop  offset="0.5" style="stop-color:#E50085"/>
				<stop  offset="1" style="stop-color:#5C001C"/>
			</linearGradient>
			<path style="fill:url(#SVGID_00000175313218052968623950000013457670157426849725_);" d="M359.51,284.17
				c0,6.92-1.04,13.6-2.94,19.89c-7.38-12.14-18.05-22.14-31-28.68c-3.17-12.58-13.01-22.72-26.07-25.97l-106.98-26.75
				c-3.75-0.94-7.34-2.17-10.78-3.66c-5.86-2.55-11.27-5.86-16.1-9.82c-5.06-4.14-9.5-8.99-13.16-14.36
				c-3.94-5.73-7-12.07-9.05-18.83c0,0,0,0,0-0.02c-1.92-6.34-2.94-13.06-2.94-19.96c0-0.58,0-1.17,0.02-1.74
				c0.94-37.08,31.38-66.96,68.69-66.96h156.67l-17.25,51.73l-35.06,0.03l6.72-18.91H209.19c-16.74,0-30.84,11.53-34.75,27.07
				c-0.72,2.81-1.1,5.75-1.1,8.77c0,3.48,0.51,6.88,1.46,10.1c1.56,5.39,4.39,10.28,8.15,14.34c2.73,2.92,5.95,5.4,9.56,7.28
				c1.96,1.04,4.04,1.89,6.21,2.55c0.59,0.2,1.18,0.36,1.77,0.51l4.25,1.07l9.74,2.43l92.97,23.25
				C338.1,225.19,359.51,252.6,359.51,284.17z"/>
			
				<linearGradient id="SVGID_00000176757194215564764250000012527657172695475872_" gradientUnits="userSpaceOnUse" x1="462.8882" y1="591.9301" x2="100.4938" y2="210.6609">
				<stop  offset="0" style="stop-color:#CAB7FF"/>
				<stop  offset="0.33" style="stop-color:#6B43DC"/>
				<stop  offset="0.66" style="stop-color:#432792"/>
				<stop  offset="1" style="stop-color:#120025"/>
			</linearGradient>
			<path style="fill:url(#SVGID_00000176757194215564764250000012527657172695475872_);" d="M359.51,344
				c0,37.88-30.82,68.69-68.7,68.69H134.13l17.18-51.53l35.07,0.08l-6.69,18.6h111.1c19.76,0,35.85-16.07,35.85-35.83
				c0-13.67-7.69-25.84-19.43-31.87c-2.41-1.25-4.99-2.22-7.72-2.91l-106.98-26.74c-30.62-7.66-52.03-35.06-52.03-66.63
				c0-6.93,1.03-13.62,2.94-19.93c0.71,1.2,1.48,2.38,2.27,3.53c4.12,6.03,9.08,11.45,14.74,16.08c4.32,3.53,9.02,6.59,14,9.1
				c3.17,12.58,13.01,22.72,26.07,25.97l106.96,26.74c4.78,1.2,9.35,2.88,13.64,4.98c0.85,0.43,1.71,0.85,2.55,1.31
				c0.82,0.44,1.66,0.92,2.46,1.41c0.82,0.48,1.61,0.99,2.4,1.5c0.79,0.53,1.58,1.05,2.33,1.61c0.64,0.44,1.26,0.9,1.87,1.38
				c0.26,0.2,0.51,0.39,0.76,0.59c0.36,0.28,0.71,0.56,1.05,0.85c0.39,0.31,0.77,0.62,1.15,0.97c0.62,0.51,1.23,1.05,1.82,1.61
				c0.64,0.61,1.28,1.22,1.92,1.86c0.66,0.66,1.3,1.33,1.94,2.02c0.62,0.67,1.25,1.38,1.84,2.09c0.56,0.64,1.08,1.3,1.61,1.95
				c0.1,0.11,0.2,0.25,0.28,0.36c0.53,0.69,1.05,1.38,1.56,2.09c0.53,0.74,1.05,1.49,1.56,2.27c0.53,0.79,1.03,1.59,1.51,2.41
				c6,9.97,9.5,21.52,9.76,33.78C359.51,342.92,359.51,343.46,359.51,344z"/>
			
				<linearGradient id="SVGID_00000079463866418395349680000011339530415960480413_" gradientUnits="userSpaceOnUse" x1="580.6353" y1="480.012" x2="218.2399" y2="98.7417">
				<stop  offset="0" style="stop-color:#CAB7FF"/>
				<stop  offset="0.33" style="stop-color:#6B43DC"/>
				<stop  offset="0.66" style="stop-color:#432792"/>
				<stop  offset="1" style="stop-color:#120025"/>
			</linearGradient>
			<path style="fill:url(#SVGID_00000079463866418395349680000011339530415960480413_);" d="M330.94,147.14H209.19
				c-9.76,0-19.04,2.04-27.45,5.73c-0.11,1.03-0.18,2.09-0.18,3.14c0,2.63,0.38,5.26,1.12,7.77c1.2,4.11,3.37,7.92,6.31,11.09
				c2.69,2.91,6.03,5.21,9.73,6.69c3.32-1.02,6.83-1.56,10.48-1.56h111.09l-4.42,13.27l31.16,10.4l18.84-56.53h-11.29H330.94z"/>
		</g>
		
			<linearGradient id="SVGID_00000174595687383974047890000000092159923167261598_" gradientUnits="userSpaceOnUse" x1="228.8181" y1="401.6468" x2="337.0331" y2="245.6161">
			<stop  offset="0" style="stop-color:#FFFFFF;stop-opacity:0"/>
			<stop  offset="1" style="stop-color:#FFFFFF"/>
		</linearGradient>
		<path style="opacity:0.5;fill:url(#SVGID_00000174595687383974047890000000092159923167261598_);" d="M359.51,344
			c0,37.88-30.82,68.69-68.7,68.69H134.13l17.18-51.53l35.07,0.08l-6.69,18.6h111.1c19.76,0,35.85-16.07,35.85-35.83
			c0-13.67-7.69-25.84-19.43-31.87c19.48,6.54,37.21,16.92,52.26,30.26C359.51,342.92,359.51,343.46,359.51,344z"/>
		
			<linearGradient id="SVGID_00000142148418897499410680000012486362437757896576_" gradientUnits="userSpaceOnUse" x1="207.3315" y1="189.9626" x2="211.9247" y2="196.191">
			<stop  offset="0" style="stop-color:#FF87D1"/>
			<stop  offset="0.5" style="stop-color:#E50085"/>
			<stop  offset="1" style="stop-color:#5C001C"/>
		</linearGradient>
		<path style="fill:url(#SVGID_00000142148418897499410680000012486362437757896576_);" d="M204.76,191.86l9.74,2.43
			C211.21,193.6,207.96,192.78,204.76,191.86z"/>
		
			<linearGradient id="SVGID_00000170965521877223643280000008718274040200038306_" gradientUnits="userSpaceOnUse" x1="243.5016" y1="135.1926" x2="172.197" y2="211.9499">
			<stop  offset="0" style="stop-color:#FFFFFF;stop-opacity:0"/>
			<stop  offset="1" style="stop-color:#FFFFFF"/>
		</linearGradient>
		<path style="opacity:0.5;fill:url(#SVGID_00000170965521877223643280000008718274040200038306_);" d="M365.87,87.31l-17.25,51.73
			l-35.06,0.03l6.72-18.91H209.19c-16.74,0-30.84,11.53-34.75,27.07c-0.72,2.81-1.1,5.75-1.1,8.77c0,3.48,0.51,6.88,1.46,10.1
			c1.56,5.39,4.39,10.28,8.15,14.34c2.73,2.92,5.95,5.4,9.56,7.28c-19.63-7.51-37.29-18.97-52.01-33.46
			c0.94-37.08,31.38-66.96,68.69-66.96H365.87z"/>
	</g>
</g>
</svg>
