<?xml version="1.0" encoding="utf-8"?>
<!-- Generator: Adobe Illustrator 26.0.1, SVG Export Plug-In . SVG Version: 6.00 Build 0)  -->
<svg version="1.1" id="Layer_1" xmlns="http://www.w3.org/2000/svg" xmlns:xlink="http://www.w3.org/1999/xlink" x="0px" y="0px"
	 viewBox="0 0 500 500" style="enable-background:new 0 0 500 500;" xml:space="preserve">
<style type="text/css">
	.st0{fill:url(#SVGID_1_);}
	.st1{fill:url(#SVGID_00000119812102042549202250000008433401581236862612_);}
	.st2{fill:url(#SVGID_00000059272859661702139990000014327307085924768657_);}
	.st3{fill:url(#SVGID_00000034799147266332174370000007202981726787700414_);}
	.st4{opacity:0.5;fill:url(#SVGID_00000160870244178527070730000010036677986167017896_);enable-background:new    ;}
	.st5{fill:url(#SVGID_00000084520260223619511600000010398339624705057210_);}
	.st6{opacity:0.5;fill:url(#SVGID_00000083076065608738536840000002667380418530815398_);enable-background:new    ;}
</style>
<g id="BACKGROUND">
</g>
<g id="OBJECTS">
	<g>
		<g>
			
				<linearGradient id="SVGID_1_" gradientUnits="userSpaceOnUse" x1="-200.6784" y1="695.9492" x2="355.6878" y2="-58.4836" gradientTransform="matrix(1 0 0 -1 0 502)">
				<stop  offset="0" style="stop-color:#FF87D1"/>
				<stop  offset="0.5" style="stop-color:#E50085"/>
				<stop  offset="1" style="stop-color:#5C001C"/>
			</linearGradient>
			<path class="st0" d="M121.3,311.5l-25,75h14.9h31.4h161.5c12.9,0,25.3-2.7,36.4-7.6c0.1-1.4,0.2-2.7,0.2-4.2
				c0-15-9.1-28.3-22.7-33.9c-4.4,1.4-9.1,2.1-13.9,2.1H156.8l5.9-17.6L121.3,311.5z"/>
			
				<linearGradient id="SVGID_00000170267492371067006260000013092650595928437655_" gradientUnits="userSpaceOnUse" x1="-43.946" y1="811.537" x2="512.4219" y2="57.1022" gradientTransform="matrix(1 0 0 -1 0 502)">
				<stop  offset="0" style="stop-color:#FF87D1"/>
				<stop  offset="0.5" style="stop-color:#E50085"/>
				<stop  offset="1" style="stop-color:#5C001C"/>
			</linearGradient>
			<path style="fill:url(#SVGID_00000170267492371067006260000013092650595928437655_);" d="M395.3,295.3c0,9.2-1.4,18-3.9,26.4
				c-9.8-16.1-23.9-29.4-41.1-38c-4.2-16.7-17.3-30.1-34.6-34.4l-141.9-35.5c-5-1.2-9.7-2.9-14.3-4.9c-7.8-3.4-14.9-7.8-21.4-13
				c-6.7-5.5-12.6-11.9-17.5-19c-5.2-7.6-9.3-16-12-25c0,0,0,0,0,0c-2.5-8.4-3.9-17.3-3.9-26.5c0-0.8,0-1.6,0-2.3
				c1.2-49.2,41.6-88.8,91.1-88.8h207.8l-22.9,68.6l-46.5,0l8.9-25.1H195.9c-22.2,0-40.9,15.3-46.1,35.9c-1,3.7-1.5,7.6-1.5,11.6
				c0,4.6,0.7,9.1,1.9,13.4c2.1,7.1,5.8,13.6,10.8,19c3.6,3.9,7.9,7.2,12.7,9.7c2.6,1.4,5.4,2.5,8.2,3.4c0.8,0.3,1.6,0.5,2.3,0.7
				l5.6,1.4l12.9,3.2l123.3,30.8C366.9,217.1,395.3,253.5,395.3,295.3z"/>
			
				<linearGradient id="SVGID_00000170971499831746885070000007675630704111745960_" gradientUnits="userSpaceOnUse" x1="532.3834" y1="-201.5594" x2="51.6836" y2="304.1769" gradientTransform="matrix(1 0 0 -1 0 502)">
				<stop  offset="0" style="stop-color:#CAB7FF"/>
				<stop  offset="0.33" style="stop-color:#6B43DC"/>
				<stop  offset="0.66" style="stop-color:#432792"/>
				<stop  offset="1" style="stop-color:#120025"/>
			</linearGradient>
			<path style="fill:url(#SVGID_00000170971499831746885070000007675630704111745960_);" d="M395.3,374.7
				c0,50.2-40.9,91.1-91.1,91.1H96.3l22.8-68.4l46.5,0.1l-8.9,24.7h147.4c26.2,0,47.6-21.3,47.6-47.5c0-18.1-10.2-34.3-25.8-42.3
				c-3.2-1.7-6.6-2.9-10.2-3.9l-141.9-35.5c-40.6-10.2-69-46.5-69-88.4c0-9.2,1.4-18.1,3.9-26.4c0.9,1.6,2,3.2,3,4.7
				c5.5,8,12,15.2,19.6,21.3c5.7,4.7,12,8.7,18.6,12.1c4.2,16.7,17.3,30.1,34.6,34.4l141.9,35.5c6.3,1.6,12.4,3.8,18.1,6.6
				c1.1,0.6,2.3,1.1,3.4,1.7c1.1,0.6,2.2,1.2,3.3,1.9c1.1,0.6,2.1,1.3,3.2,2c1,0.7,2.1,1.4,3.1,2.1c0.8,0.6,1.7,1.2,2.5,1.8
				c0.3,0.3,0.7,0.5,1,0.8c0.5,0.4,0.9,0.7,1.4,1.1c0.5,0.4,1,0.8,1.5,1.3c0.8,0.7,1.6,1.4,2.4,2.1c0.8,0.8,1.7,1.6,2.5,2.5
				c0.9,0.9,1.7,1.8,2.6,2.7c0.8,0.9,1.7,1.8,2.4,2.8c0.7,0.8,1.4,1.7,2.1,2.6c0.1,0.1,0.3,0.3,0.4,0.5c0.7,0.9,1.4,1.8,2.1,2.8
				c0.7,1,1.4,2,2.1,3c0.7,1,1.4,2.1,2,3.2c8,13.2,12.6,28.5,12.9,44.8C395.3,373.3,395.3,374,395.3,374.7z"/>
			
				<linearGradient id="SVGID_00000150789591797030839440000009408712636634749357_" gradientUnits="userSpaceOnUse" x1="688.5779" y1="-53.0972" x2="207.8768" y2="452.6405" gradientTransform="matrix(1 0 0 -1 0 502)">
				<stop  offset="0" style="stop-color:#CAB7FF"/>
				<stop  offset="0.33" style="stop-color:#6B43DC"/>
				<stop  offset="0.66" style="stop-color:#432792"/>
				<stop  offset="1" style="stop-color:#120025"/>
			</linearGradient>
			<path style="fill:url(#SVGID_00000150789591797030839440000009408712636634749357_);" d="M357.4,113.6H195.9
				c-12.9,0-25.3,2.7-36.4,7.6c-0.1,1.4-0.2,2.8-0.2,4.2c0,3.5,0.5,7,1.5,10.3c1.6,5.5,4.5,10.5,8.4,14.7c3.6,3.9,8,6.9,12.9,8.9
				c4.4-1.4,9.1-2.1,13.9-2.1h147.4l-5.9,17.6l41.3,13.8l25-75h-15H357.4z"/>
		</g>
		
			<linearGradient id="SVGID_00000002355868026597498080000001146434956081972893_" gradientUnits="userSpaceOnUse" x1="221.9026" y1="50.8462" x2="365.4449" y2="257.8138" gradientTransform="matrix(1 0 0 -1 0 502)">
			<stop  offset="0" style="stop-color:#FFFFFF;stop-opacity:0"/>
			<stop  offset="1" style="stop-color:#FFFFFF"/>
		</linearGradient>
		<path style="opacity:0.5;fill:url(#SVGID_00000002355868026597498080000001146434956081972893_);enable-background:new    ;" d="
			M395.3,374.7c0,50.2-40.9,91.1-91.1,91.1H96.3l22.8-68.4l46.5,0.1l-8.9,24.7h147.4c26.2,0,47.6-21.3,47.6-47.5
			c0-18.1-10.2-34.3-25.8-42.3c25.8,8.7,49.4,22.4,69.3,40.1C395.3,373.3,395.3,374,395.3,374.7z"/>
		
			<linearGradient id="SVGID_00000055705248005374956710000015094373274671069574_" gradientUnits="userSpaceOnUse" x1="193.4056" y1="331.6364" x2="199.4965" y2="323.3772" gradientTransform="matrix(1 0 0 -1 0 502)">
			<stop  offset="0" style="stop-color:#FF87D1"/>
			<stop  offset="0.5" style="stop-color:#E50085"/>
			<stop  offset="1" style="stop-color:#5C001C"/>
		</linearGradient>
		<path style="fill:url(#SVGID_00000055705248005374956710000015094373274671069574_);" d="M190,172.9l12.9,3.2
			C198.5,175.2,194.2,174.1,190,172.9z"/>
		
			<linearGradient id="SVGID_00000057115008083571496040000018426221900013792182_" gradientUnits="userSpaceOnUse" x1="241.373" y1="404.2918" x2="146.7907" y2="302.4767" gradientTransform="matrix(1 0 0 -1 0 502)">
			<stop  offset="0" style="stop-color:#FFFFFF;stop-opacity:0"/>
			<stop  offset="1" style="stop-color:#FFFFFF"/>
		</linearGradient>
		<path style="opacity:0.5;fill:url(#SVGID_00000057115008083571496040000018426221900013792182_);enable-background:new    ;" d="
			M403.7,34.2l-22.9,68.6l-46.5,0l8.9-25.1H195.9c-22.2,0-40.9,15.3-46.1,35.9c-1,3.7-1.5,7.6-1.5,11.6c0,4.6,0.7,9.1,1.9,13.4
			c2.1,7.1,5.8,13.6,10.8,19c3.6,3.9,7.9,7.2,12.7,9.7c-26-10-49.5-25.2-69-44.4c1.2-49.2,41.6-88.8,91.1-88.8L403.7,34.2
			L403.7,34.2z"/>
	</g>
</g>
</svg>
