<?xml version="1.0" encoding="utf-8"?>
<!-- Generator: Adobe Illustrator 26.0.1, SVG Export Plug-In . SVG Version: 6.00 Build 0)  -->
<svg version="1.1" id="Layer_1" xmlns="http://www.w3.org/2000/svg" xmlns:xlink="http://www.w3.org/1999/xlink" x="0px" y="0px"
	 viewBox="0 0 384 384" style="enable-background:new 0 0 384 384;" xml:space="preserve">
<style type="text/css">
	.st0{fill:url(#SVGID_1_);}
	.st1{fill:url(#SVGID_00000142161827232079449770000006773901740177147809_);}
	.st2{fill:url(#SVGID_00000119819622944483000660000012832429684460231568_);}
	.st3{fill:url(#SVGID_00000102511887528673836330000007649157020952033685_);}
	.st4{opacity:0.5;fill:url(#SVGID_00000114040356791726297720000011865409404566270611_);enable-background:new    ;}
	.st5{fill:url(#SVGID_00000113325510078211779280000003991329114560526761_);}
	.st6{opacity:0.5;fill:url(#SVGID_00000109024952594743831860000009129236913672535180_);enable-background:new    ;}
</style>
<g id="OBJECTS">
	<g>
		<g>
			
				<linearGradient id="SVGID_1_" gradientUnits="userSpaceOnUse" x1="-170.0956" y1="550.7056" x2="276.6032" y2="-55.0181" gradientTransform="matrix(1 0 0 -1 0 386)">
				<stop  offset="0" style="stop-color:#FF87D1"/>
				<stop  offset="0.5" style="stop-color:#E50085"/>
				<stop  offset="1" style="stop-color:#5C001C"/>
			</linearGradient>
			<path class="st0" d="M88.42,241.09l-20.06,60.2h12h25.2h129.66c10.39,0,20.28-2.17,29.23-6.1c0.12-1.11,0.19-2.2,0.19-3.34
				c0-12.08-7.32-22.75-18.23-27.22c-3.54,1.09-7.3,1.68-11.19,1.68H116.88l4.73-14.15L88.42,241.09z"/>
			
				<linearGradient id="SVGID_00000128456609016752422460000011924696410859305097_" gradientUnits="userSpaceOnUse" x1="-44.2573" y1="643.5095" x2="402.4428" y2="37.7841" gradientTransform="matrix(1 0 0 -1 0 386)">
				<stop  offset="0" style="stop-color:#FF87D1"/>
				<stop  offset="0.5" style="stop-color:#E50085"/>
				<stop  offset="1" style="stop-color:#5C001C"/>
			</linearGradient>
			<path style="fill:url(#SVGID_00000128456609016752422460000011924696410859305097_);" d="M308.38,228.13
				c0,7.37-1.11,14.48-3.13,21.18c-7.86-12.93-19.22-23.58-33.01-30.54c-3.38-13.4-13.86-24.2-27.76-27.66l-113.93-28.49
				c-3.99-1-7.82-2.31-11.48-3.9c-6.24-2.72-12-6.24-17.15-10.46c-5.39-4.41-10.12-9.57-14.02-15.29c-4.2-6.1-7.45-12.85-9.64-20.05
				c0,0,0,0,0-0.02c-2.04-6.75-3.13-13.91-3.13-21.26c0-0.62,0-1.25,0.02-1.85c1-39.49,33.42-71.31,73.15-71.31h166.85l-18.37,55.09
				l-37.34,0.03l7.16-20.14H148.29c-17.83,0-32.84,12.28-37.01,28.83c-0.77,2.99-1.17,6.12-1.17,9.34c0,3.71,0.54,7.33,1.55,10.76
				c1.66,5.74,4.68,10.95,8.68,15.27c2.91,3.11,6.34,5.75,10.18,7.75c2.09,1.11,4.3,2.01,6.61,2.72c0.63,0.21,1.26,0.38,1.89,0.54
				l4.53,1.14l10.37,2.59l99.01,24.76C285.57,165.31,308.38,194.51,308.38,228.13z"/>
			
				<linearGradient id="SVGID_00000043432287912217754160000006778982953426398609_" gradientUnits="userSpaceOnUse" x1="418.4696" y1="-169.8917" x2="32.5224" y2="236.157" gradientTransform="matrix(1 0 0 -1 0 386)">
				<stop  offset="0" style="stop-color:#CAB7FF"/>
				<stop  offset="0.33" style="stop-color:#6B43DC"/>
				<stop  offset="0.66" style="stop-color:#432792"/>
				<stop  offset="1" style="stop-color:#120025"/>
			</linearGradient>
			<path style="fill:url(#SVGID_00000043432287912217754160000006778982953426398609_);" d="M308.38,291.85
				c0,40.34-32.82,73.15-73.16,73.15H68.35l18.3-54.88l37.35,0.09l-7.12,19.81h118.32c21.04,0,38.18-17.11,38.18-38.16
				c0-14.56-8.19-27.52-20.69-33.94c-2.57-1.33-5.31-2.36-8.22-3.1l-113.93-28.48c-32.61-8.16-55.41-37.34-55.41-70.96
				c0-7.38,1.1-14.51,3.13-21.23c0.76,1.28,1.58,2.53,2.42,3.76c4.39,6.42,9.67,12.19,15.7,17.13c4.6,3.76,9.61,7.02,14.91,9.69
				c3.38,13.4,13.86,24.2,27.76,27.66l113.91,28.48c5.09,1.28,9.96,3.07,14.53,5.3c0.91,0.46,1.82,0.91,2.72,1.4
				c0.87,0.47,1.77,0.98,2.62,1.5c0.87,0.51,1.71,1.05,2.56,1.6c0.84,0.56,1.68,1.12,2.48,1.71c0.68,0.47,1.34,0.96,1.99,1.47
				c0.28,0.21,0.54,0.42,0.81,0.63c0.38,0.3,0.76,0.6,1.12,0.91c0.42,0.33,0.82,0.66,1.22,1.03c0.66,0.54,1.31,1.12,1.94,1.71
				c0.68,0.65,1.36,1.3,2.04,1.98c0.7,0.7,1.38,1.42,2.07,2.15c0.66,0.71,1.33,1.47,1.96,2.23c0.6,0.68,1.15,1.38,1.71,2.08
				c0.11,0.12,0.21,0.27,0.3,0.38c0.56,0.73,1.12,1.47,1.66,2.23c0.56,0.79,1.12,1.59,1.66,2.42c0.56,0.84,1.1,1.69,1.61,2.57
				c6.39,10.62,10.12,22.92,10.39,35.98C308.38,290.7,308.38,291.27,308.38,291.85z"/>
			
				<linearGradient id="SVGID_00000173151957852190469230000010641029144416758460_" gradientUnits="userSpaceOnUse" x1="543.876" y1="-50.6935" x2="157.9278" y2="355.3564" gradientTransform="matrix(1 0 0 -1 0 386)">
				<stop  offset="0" style="stop-color:#CAB7FF"/>
				<stop  offset="0.33" style="stop-color:#6B43DC"/>
				<stop  offset="0.66" style="stop-color:#432792"/>
				<stop  offset="1" style="stop-color:#120025"/>
			</linearGradient>
			<path style="fill:url(#SVGID_00000173151957852190469230000010641029144416758460_);" d="M277.95,82.19H148.29
				c-10.39,0-20.28,2.17-29.23,6.1c-0.12,1.1-0.19,2.23-0.19,3.34c0,2.8,0.4,5.6,1.19,8.27c1.28,4.38,3.59,8.43,6.72,11.81
				c2.86,3.1,6.42,5.55,10.36,7.12c3.54-1.09,7.27-1.66,11.16-1.66h118.31l-4.71,14.13l33.19,11.08l20.06-60.2h-12.02H277.95z"/>
		</g>
		
			<linearGradient id="SVGID_00000008132076099164341910000008809299971204290231_" gradientUnits="userSpaceOnUse" x1="169.1888" y1="32.7613" x2="284.437" y2="198.9327" gradientTransform="matrix(1 0 0 -1 0 386)">
			<stop  offset="0" style="stop-color:#FFFFFF;stop-opacity:0"/>
			<stop  offset="1" style="stop-color:#FFFFFF"/>
		</linearGradient>
		<path style="opacity:0.5;fill:url(#SVGID_00000008132076099164341910000008809299971204290231_);enable-background:new    ;" d="
			M308.38,291.85c0,40.34-32.82,73.15-73.16,73.15H68.35l18.3-54.88l37.35,0.09l-7.12,19.81h118.32c21.04,0,38.18-17.11,38.18-38.16
			c0-14.56-8.19-27.52-20.69-33.94c20.75,6.97,39.63,18.02,55.66,32.23C308.38,290.7,308.38,291.27,308.38,291.85z"/>
		
			<linearGradient id="SVGID_00000052085708849055224270000010236909947454178473_" gradientUnits="userSpaceOnUse" x1="146.309" y1="258.2039" x2="151.1993" y2="251.5726" gradientTransform="matrix(1 0 0 -1 0 386)">
			<stop  offset="0" style="stop-color:#FF87D1"/>
			<stop  offset="0.5" style="stop-color:#E50085"/>
			<stop  offset="1" style="stop-color:#5C001C"/>
		</linearGradient>
		<path style="fill:url(#SVGID_00000052085708849055224270000010236909947454178473_);" d="M143.57,129.82l10.37,2.59
			C150.44,131.67,146.98,130.8,143.57,129.82z"/>
		
			<linearGradient id="SVGID_00000100344453106855893360000018050217453819456938_" gradientUnits="userSpaceOnUse" x1="184.8214" y1="316.5379" x2="108.8826" y2="234.7919" gradientTransform="matrix(1 0 0 -1 0 386)">
			<stop  offset="0" style="stop-color:#FFFFFF;stop-opacity:0"/>
			<stop  offset="1" style="stop-color:#FFFFFF"/>
		</linearGradient>
		<path style="opacity:0.5;fill:url(#SVGID_00000100344453106855893360000018050217453819456938_);enable-background:new    ;" d="
			M315.15,18.47l-18.37,55.09l-37.34,0.03l7.16-20.14H148.29c-17.83,0-32.84,12.28-37.01,28.83c-0.77,2.99-1.17,6.12-1.17,9.34
			c0,3.71,0.54,7.33,1.55,10.76c1.66,5.74,4.68,10.95,8.68,15.27c2.91,3.11,6.34,5.75,10.18,7.75c-20.91-8-39.71-20.2-55.39-35.63
			c1-39.49,33.42-71.31,73.15-71.31h166.86V18.47z"/>
	</g>
</g>
</svg>
